<svg width="1848" height="1971" viewBox="0 0 1848 1971" fill="none" xmlns="http://www.w3.org/2000/svg">
<g filter="url(#filter0_f_2004_2)">
<path fill-rule="evenodd" clip-rule="evenodd" d="M729.057 202.404C732.976 201.779 736.884 201.222 740.778 200.731C829.449 189.55 914.187 211.161 961.615 224.51C1003.17 236.207 1055.06 256.203 1106.32 286.78C1161.77 294.526 1219.11 313.349 1273.7 349.243C1360.76 340.68 1442.63 366.835 1507.93 421.745C1569.33 473.369 1604.08 539.95 1623.68 595.103C1661.27 700.886 1664.28 823.471 1641.94 917.879C1630.24 967.27 1611.43 1025.93 1584.43 1085.26C1631.94 1177.41 1682.92 1327.19 1637.92 1485.53C1571.36 1719.74 1358.51 1767.16 1259.51 1776.04C1180.8 1783.11 1052.94 1779.47 934.714 1743.43C923.144 1739.9 910.166 1735.55 896.235 1730.24C862.972 1729.83 833.615 1727.24 815.069 1725.6C812.272 1725.35 809.722 1725.13 807.44 1724.94C678.884 1714.06 553.199 1669.55 443.413 1592.03C371.849 1541.5 294.266 1467.09 244.068 1366.76C190.521 1259.74 170.49 1125.47 221.566 985.851C241.014 932.688 266.822 884.545 298.296 842.321C277.026 810.003 258.796 775.464 243.349 739.378C218.936 682.348 193.663 597.101 207.235 502.107C223.113 390.976 288.202 297.415 390.026 246.665C514.105 184.822 627.573 184.143 729.057 202.404Z" fill="#99FF00" style="mix-blend-mode:hard-light"/>
</g>
<defs>
<filter id="filter0_f_2004_2" x="0.591492" y="0.591492" width="1846.82" height="1969.82" filterUnits="userSpaceOnUse" color-interpolation-filters="sRGB">
<feFlood flood-opacity="0" result="BackgroundImageFix"/>
<feBlend mode="normal" in="SourceGraphic" in2="BackgroundImageFix" result="shape"/>
<feGaussianBlur stdDeviation="95.7043" result="effect1_foregroundBlur_2004_2"/>
</filter>
</defs>
</svg>
